<?xml version="1.0" encoding="utf-8"?>
<!-- Generator: Adobe Illustrator 19.0.1, SVG Export Plug-In . SVG Version: 6.00 Build 0)  -->
<svg version="1.1" id="Layer_1" xmlns="http://www.w3.org/2000/svg" xmlns:xlink="http://www.w3.org/1999/xlink" x="0px" y="0px"
	 viewBox="0 0 178.4 42.5" enable-background="new 0 0 178.4 42.5" xml:space="preserve">
<g>
	<g>
		<path fill="#0091FF" d="M85,16.1c-0.5,0.2-1.1,0.4-1.6,0.5s-1.1,0.1-1.7,0.1c-1.9,0-3.3-0.5-4.3-1.5s-1.5-2.5-1.5-4.4
			c0-0.9,0.1-1.8,0.4-2.5s0.7-1.4,1.2-1.9s1.1-1,1.9-1.2s1.5-0.4,2.4-0.4c0.6,0,1.2,0,1.7,0.1s1,0.2,1.5,0.4v1.9
			c-0.5-0.3-1-0.5-1.6-0.6s-1.1-0.2-1.6-0.2c-0.5,0-1,0.1-1.5,0.3s-0.9,0.5-1.2,0.9s-0.6,0.8-0.8,1.4S78,10,78,10.7
			c0,1.4,0.3,2.5,1,3.2s1.7,1.1,2.9,1.1c0.6,0,1.1-0.1,1.6-0.2s1-0.3,1.5-0.6V16.1z"/>
		<path fill="#0091FF" d="M98.5,16.6h-1.8l-0.1-1.9c-0.4,0.4-0.7,0.7-1,1s-0.6,0.5-0.9,0.7s-0.6,0.3-0.9,0.3s-0.7,0.1-1,0.1
			c-1.2,0-2.1-0.4-2.7-1.1s-0.9-1.8-0.9-3.2V4.8h2v7.5c0,1.8,0.7,2.7,2,2.7c0.3,0,0.5,0,0.7-0.1s0.5-0.2,0.8-0.4s0.5-0.4,0.8-0.7
			s0.6-0.7,1-1.2V4.8h2V16.6z"/>
		<path fill="#0091FF" d="M112.3,10.5c0,1-0.1,1.8-0.4,2.6s-0.7,1.4-1.1,2s-1.1,0.9-1.8,1.2s-1.5,0.4-2.4,0.4
			c-0.7,0-1.4-0.1-2.1-0.2s-1.4-0.3-2.2-0.6V0h2v4.6l-0.1,2.2c0.6-0.8,1.2-1.3,1.9-1.7s1.4-0.5,2.2-0.5c0.7,0,1.3,0.1,1.8,0.4
			s0.9,0.7,1.3,1.2s0.6,1.1,0.8,1.9S112.3,9.6,112.3,10.5z M110.2,10.6c0-0.6,0-1.2-0.1-1.7s-0.2-1-0.4-1.3s-0.4-0.7-0.8-0.9
			s-0.7-0.3-1.1-0.3c-0.3,0-0.5,0-0.8,0.1s-0.5,0.2-0.8,0.4s-0.6,0.4-0.9,0.8s-0.7,0.7-1,1.2v5.7c0.4,0.2,0.8,0.3,1.2,0.4
			s0.8,0.1,1.2,0.1c0.5,0,0.9-0.1,1.3-0.2s0.8-0.4,1.1-0.7s0.6-0.8,0.8-1.4S110.2,11.4,110.2,10.6z"/>
		<path fill="#0091FF" d="M123,16.6l0-1.6c-0.6,0.6-1.3,1.1-2,1.4s-1.4,0.4-2.1,0.4c-0.7,0-1.2-0.1-1.7-0.3s-0.9-0.4-1.2-0.7
			s-0.5-0.7-0.7-1.1s-0.2-0.8-0.2-1.3c0-1.2,0.4-2.1,1.3-2.8s2.2-1,3.9-1h2.4v-1c0-0.7-0.2-1.3-0.7-1.7s-1.1-0.6-2-0.6
			c-0.7,0-1.3,0.1-2,0.2s-1.3,0.4-2,0.6V5.3c0.3-0.1,0.5-0.2,0.9-0.3s0.7-0.2,1-0.2s0.7-0.1,1.1-0.2s0.8-0.1,1.2-0.1
			c0.7,0,1.4,0.1,1.9,0.2s1.1,0.4,1.4,0.7s0.7,0.7,0.9,1.2s0.3,1.1,0.3,1.7v8.1H123z M122.8,11.2h-2.6c-0.5,0-0.9,0.1-1.3,0.2
			s-0.7,0.2-0.9,0.4s-0.4,0.4-0.5,0.7s-0.2,0.6-0.2,0.9c0,0.2,0,0.4,0.1,0.7s0.2,0.4,0.3,0.6s0.4,0.3,0.6,0.4s0.6,0.1,0.9,0.1
			c0.5,0,1-0.1,1.6-0.4s1.2-0.7,1.9-1.4V11.2z"/>
		<path fill="#0091FF" d="M128.7,4.8h1.8l0.1,1.9c0.3-0.4,0.7-0.7,1-1s0.6-0.5,0.9-0.7s0.6-0.3,0.9-0.3s0.7-0.1,1-0.1
			c1.2,0,2.1,0.4,2.7,1.1s0.9,1.8,0.9,3.2v7.7h-2V9c0-0.9-0.2-1.6-0.5-2s-0.9-0.7-1.5-0.7c-0.3,0-0.5,0-0.7,0.1s-0.5,0.2-0.7,0.4
			s-0.5,0.4-0.8,0.7s-0.6,0.7-1,1.2v7.8h-2V4.8z"/>
	</g>
	<g>
		<path fill="#0091FF" d="M85.8,31.1c0,0.3,0,0.5,0,0.7s0,0.4,0,0.6h-8.3c0,1.2,0.3,2.1,1,2.8s1.6,1,2.9,1c0.3,0,0.7,0,1,0
			s0.7-0.1,1-0.1s0.6-0.1,0.9-0.2s0.6-0.1,0.8-0.2v1.7c-0.6,0.2-1.2,0.3-1.9,0.4s-1.4,0.1-2.2,0.1c-1,0-1.9-0.1-2.6-0.4
			s-1.3-0.7-1.8-1.2s-0.8-1.2-1-1.9s-0.3-1.6-0.3-2.6c0-0.8,0.1-1.6,0.4-2.3s0.6-1.4,1-1.9s1-1,1.7-1.3s1.4-0.5,2.3-0.5
			c0.8,0,1.5,0.1,2.2,0.4s1.2,0.6,1.6,1.1s0.8,1,1,1.7S85.8,30.2,85.8,31.1z M83.7,30.8c0-0.5,0-1-0.2-1.4s-0.3-0.8-0.6-1.1
			s-0.6-0.6-1-0.7s-0.8-0.3-1.4-0.3c-0.4,0-0.9,0.1-1.2,0.3s-0.7,0.4-0.9,0.7s-0.5,0.7-0.6,1.1s-0.3,0.9-0.3,1.4H83.7z"/>
		<path fill="#0091FF" d="M89.1,25.8h1.8l0.1,1.9c0.3-0.4,0.7-0.7,1-1s0.6-0.5,0.9-0.7s0.6-0.3,0.9-0.3s0.7-0.1,1-0.1
			c1.2,0,2.1,0.4,2.7,1.1s0.9,1.8,0.9,3.2v7.7h-2V30c0-0.9-0.2-1.6-0.5-2s-0.9-0.7-1.5-0.7c-0.3,0-0.5,0-0.7,0.1s-0.5,0.2-0.7,0.4
			s-0.5,0.4-0.8,0.7s-0.6,0.7-1,1.2v7.8h-2V25.8z"/>
		<path fill="#0091FF" d="M110.7,27.5c0.2,0.3,0.4,0.6,0.5,1s0.2,0.8,0.2,1.2c0,0.6-0.1,1.2-0.3,1.7s-0.5,0.9-0.9,1.3
			s-0.9,0.6-1.5,0.8s-1.2,0.3-1.9,0.3c-0.5,0-1-0.1-1.4-0.2s-0.8-0.2-1-0.4c-0.1,0.2-0.3,0.4-0.4,0.6s-0.2,0.4-0.2,0.7
			c0,0.3,0.1,0.5,0.4,0.7s0.7,0.3,1.1,0.3l3.1,0.1c0.6,0,1.1,0.1,1.6,0.2s0.9,0.3,1.3,0.6s0.6,0.6,0.8,0.9s0.3,0.8,0.3,1.3
			c0,0.5-0.1,1-0.3,1.5s-0.6,0.9-1,1.2s-1.1,0.6-1.8,0.8s-1.6,0.3-2.6,0.3c-1,0-1.8-0.1-2.4-0.2s-1.2-0.4-1.6-0.6s-0.7-0.6-0.9-1
			s-0.3-0.8-0.3-1.2c0-0.6,0.1-1.1,0.4-1.5s0.7-0.8,1.2-1.2c-0.2-0.1-0.4-0.2-0.5-0.4s-0.3-0.3-0.4-0.5s-0.2-0.3-0.2-0.5
			s-0.1-0.4-0.1-0.6c0-0.5,0.1-1,0.4-1.4s0.5-0.8,0.8-1.2c-0.1-0.2-0.3-0.4-0.4-0.5s-0.2-0.4-0.3-0.6s-0.1-0.4-0.2-0.6
			s-0.1-0.5-0.1-0.8c0-0.6,0.1-1.2,0.3-1.7s0.5-0.9,0.9-1.3s0.9-0.6,1.5-0.8s1.2-0.3,1.9-0.3c0.3,0,0.6,0,0.8,0.1s0.5,0.1,0.7,0.2
			h4.3v1.7H110.7z M103.7,39.3c0,0.6,0.3,1,0.9,1.2s1.4,0.4,2.4,0.4c0.6,0,1.2-0.1,1.6-0.2s0.8-0.3,1.1-0.5s0.5-0.4,0.6-0.7
			s0.2-0.5,0.2-0.8c0-0.5-0.2-0.8-0.6-1.1s-1-0.4-1.8-0.4l-3.1-0.1c-0.3,0.2-0.5,0.3-0.6,0.5s-0.3,0.3-0.4,0.5s-0.2,0.3-0.2,0.5
			S103.7,39.1,103.7,39.3z M104.3,29.6c0,0.4,0.1,0.7,0.2,1s0.3,0.6,0.5,0.8s0.5,0.4,0.8,0.5s0.7,0.2,1,0.2c0.4,0,0.8-0.1,1.1-0.2
			s0.6-0.3,0.8-0.6s0.4-0.5,0.5-0.8s0.2-0.6,0.2-0.9c0-0.4-0.1-0.7-0.2-1s-0.3-0.6-0.5-0.8s-0.5-0.4-0.8-0.5s-0.7-0.2-1-0.2
			c-0.4,0-0.8,0.1-1.1,0.2s-0.6,0.3-0.8,0.6s-0.4,0.5-0.5,0.8S104.3,29.3,104.3,29.6z"/>
		<path fill="#0091FF" d="M119.5,27.5H116v-1.7h5.5v10.1h3.5v1.7h-9.4v-1.7h3.9V27.5z M120.2,20.9c0.2,0,0.4,0,0.6,0.1
			s0.4,0.2,0.5,0.3s0.3,0.3,0.3,0.5s0.1,0.4,0.1,0.6c0,0.2,0,0.4-0.1,0.6s-0.2,0.4-0.3,0.5s-0.3,0.3-0.5,0.3s-0.4,0.1-0.6,0.1
			s-0.4,0-0.6-0.1s-0.4-0.2-0.5-0.3s-0.3-0.3-0.3-0.5s-0.1-0.4-0.1-0.6c0-0.2,0-0.4,0.1-0.6s0.2-0.4,0.3-0.5s0.3-0.3,0.5-0.3
			S120,20.9,120.2,20.9z"/>
		<path fill="#0091FF" d="M128.7,25.8h1.8l0.1,1.9c0.3-0.4,0.7-0.7,1-1s0.6-0.5,0.9-0.7s0.6-0.3,0.9-0.3s0.7-0.1,1-0.1
			c1.2,0,2.1,0.4,2.7,1.1s0.9,1.8,0.9,3.2v7.7h-2V30c0-0.9-0.2-1.6-0.5-2s-0.9-0.7-1.5-0.7c-0.3,0-0.5,0-0.7,0.1s-0.5,0.2-0.7,0.4
			s-0.5,0.4-0.8,0.7s-0.6,0.7-1,1.2v7.8h-2V25.8z"/>
		<path fill="#0091FF" d="M151.8,31.1c0,0.3,0,0.5,0,0.7s0,0.4,0,0.6h-8.3c0,1.2,0.3,2.1,1,2.8s1.6,1,2.9,1c0.3,0,0.7,0,1,0
			s0.7-0.1,1-0.1s0.6-0.1,0.9-0.2s0.6-0.1,0.8-0.2v1.7c-0.6,0.2-1.2,0.3-1.9,0.4s-1.4,0.1-2.2,0.1c-1,0-1.9-0.1-2.6-0.4
			s-1.3-0.7-1.8-1.2s-0.8-1.2-1-1.9s-0.3-1.6-0.3-2.6c0-0.8,0.1-1.6,0.4-2.3s0.6-1.4,1-1.9s1-1,1.7-1.3s1.4-0.5,2.3-0.5
			c0.8,0,1.5,0.1,2.2,0.4s1.2,0.6,1.6,1.1s0.8,1,1,1.7S151.8,30.2,151.8,31.1z M149.7,30.8c0-0.5,0-1-0.2-1.4s-0.3-0.8-0.6-1.1
			s-0.6-0.6-1-0.7s-0.8-0.3-1.4-0.3c-0.4,0-0.9,0.1-1.2,0.3s-0.7,0.4-0.9,0.7s-0.5,0.7-0.6,1.1s-0.3,0.9-0.3,1.4H149.7z"/>
		<path fill="#0091FF" d="M165,31.1c0,0.3,0,0.5,0,0.7s0,0.4,0,0.6h-8.3c0,1.2,0.3,2.1,1,2.8s1.6,1,2.9,1c0.3,0,0.7,0,1,0
			s0.7-0.1,1-0.1s0.6-0.1,0.9-0.2s0.6-0.1,0.8-0.2v1.7c-0.6,0.2-1.2,0.3-1.9,0.4s-1.4,0.1-2.2,0.1c-1,0-1.9-0.1-2.6-0.4
			s-1.3-0.7-1.8-1.2s-0.8-1.2-1-1.9s-0.3-1.6-0.3-2.6c0-0.8,0.1-1.6,0.4-2.3s0.6-1.4,1-1.9s1-1,1.7-1.3s1.4-0.5,2.3-0.5
			c0.8,0,1.5,0.1,2.2,0.4s1.2,0.6,1.6,1.1s0.8,1,1,1.7S165,30.2,165,31.1z M162.9,30.8c0-0.5,0-1-0.2-1.4s-0.3-0.8-0.6-1.1
			s-0.6-0.6-1-0.7s-0.8-0.3-1.4-0.3c-0.4,0-0.9,0.1-1.2,0.3s-0.7,0.4-0.9,0.7s-0.5,0.7-0.6,1.1s-0.3,0.9-0.3,1.4H162.9z"/>
		<path fill="#0091FF" d="M168.7,25.8h1.9l0.1,2.2c0.7-0.8,1.4-1.4,2.1-1.8s1.4-0.6,2-0.6c1.2,0,2.1,0.4,2.8,1.2s0.9,2,0.9,3.5h-2.1
			c0-1-0.1-1.8-0.5-2.2s-0.8-0.7-1.4-0.7c-0.3,0-0.5,0-0.8,0.1s-0.6,0.3-0.9,0.5s-0.6,0.5-0.9,0.8s-0.7,0.7-1.1,1.2v7.6h-2.1V25.8z"
			/>
	</g>
	<path fill="#0091FF" d="M61.9,36.7c-1.5,0-2.8-1.2-2.8-2.8c0-1.5,1.2-2.8,2.8-2.8c1.5,0,2.8,1.2,2.8,2.8
		C64.7,35.4,63.4,36.7,61.9,36.7 M26.4,13.6c1.5,0,2.8,1.2,2.8,2.8c0,1.5-1.2,2.8-2.8,2.8c-1.5,0-2.8-1.2-2.8-2.8
		C23.6,14.8,24.8,13.6,26.4,13.6 M46.9,23.8c-1.5,0-2.8-1.2-2.8-2.8c0-1.5,1.2-2.8,2.8-2.8c1.5,0,2.8,1.2,2.8,2.8
		C49.7,22.6,48.4,23.8,46.9,23.8 M61.9,28.8c-1.5,0-2.8,0.6-3.7,1.6h-2.8c0,0,0,0,0,0h-6.3c-4.8-0.3-8.8-4.2-8.9-9.1
		c-0.1-5.2,4.1-9.5,9.3-9.5c3.9,0,7.2,2.4,8.6,5.8h-7.6c-0.9-1-2.2-1.6-3.7-1.6c-2.8,0-5.1,2.3-5.1,5.1s2.3,5.1,5.1,5.1
		c1.4,0,2.8-0.6,3.7-1.6h11c2.4,0,4.3-1.9,4.3-4.3c0-0.1,0-0.1,0-0.2c0,0,0-0.1,0-0.1c-0.1-0.8-0.2-1.7-0.4-2.5
		c-1.6-7.4-8.2-12.9-16.1-12.8c-7.8,0-14.3,5.5-15.9,12.8c0,0-0.4,2.7-0.4,3.6c0,0.9,0.3,3.5,0.3,3.5c0.5,2.1,1.3,4.1,2.5,5.8H16.4
		c-5.1,0-9.3-4.2-9.3-9.3s4.2-9.3,9.3-9.3h4.5h1.3h0.6v0.6v0.4c-0.9,0.9-1.5,2.2-1.5,3.6c0,2.8,2.3,5.1,5.1,5.1
		c2.8,0,5.1-2.3,5.1-5.1c0-1.5-0.6-2.8-1.6-3.7V9v0v0c0-0.1,0-0.1,0-0.2c0,0,0-0.1,0-0.1c-0.1-2.3-2-4.1-4.3-4.1h-2.7h-1.9h-4.5
		c-8.8,0-13.5,7.1-13.5,7.1C1.1,14.4,0,17.6,0,21c0,9,7.3,16.4,16.4,16.4H49c0.2,0,0.4,0,0.6,0h8.6c0.9,1,2.2,1.6,3.7,1.6
		c2.8,0,5.1-2.3,5.1-5.1C67,31.1,64.7,28.8,61.9,28.8"/>
</g>
</svg>
